<svg id="visual" viewBox="0 0 900 600" width="900" height="600" xmlns="http://www.w3.org/2000/svg" xmlns:xlink="http://www.w3.org/1999/xlink" version="1.1"><path d="M0 91L82 91L82 103L164 103L164 55L245 55L245 103L327 103L327 103L409 103L409 85L491 85L491 85L573 85L573 79L655 79L655 55L736 55L736 55L818 55L818 61L900 61L900 55L900 0L900 0L818 0L818 0L736 0L736 0L655 0L655 0L573 0L573 0L491 0L491 0L409 0L409 0L327 0L327 0L245 0L245 0L164 0L164 0L82 0L82 0L0 0Z" fill="#6990fa"></path><path d="M0 223L82 223L82 217L164 217L164 163L245 163L245 193L327 193L327 229L409 229L409 181L491 181L491 163L573 163L573 223L655 223L655 163L736 163L736 121L818 121L818 169L900 169L900 175L900 53L900 59L818 59L818 53L736 53L736 53L655 53L655 77L573 77L573 83L491 83L491 83L409 83L409 101L327 101L327 101L245 101L245 53L164 53L164 101L82 101L82 89L0 89Z" fill="#5072e9"></path><path d="M0 331L82 331L82 271L164 271L164 289L245 289L245 265L327 265L327 325L409 325L409 241L491 241L491 223L573 223L573 283L655 283L655 229L736 229L736 187L818 187L818 253L900 253L900 259L900 173L900 167L818 167L818 119L736 119L736 161L655 161L655 221L573 221L573 161L491 161L491 179L409 179L409 227L327 227L327 191L245 191L245 161L164 161L164 215L82 215L82 221L0 221Z" fill="#3954d7"></path><path d="M0 427L82 427L82 427L164 427L164 517L245 517L245 367L327 367L327 475L409 475L409 433L491 433L491 331L573 331L573 433L655 433L655 355L736 355L736 475L818 475L818 451L900 451L900 469L900 257L900 251L818 251L818 185L736 185L736 227L655 227L655 281L573 281L573 221L491 221L491 239L409 239L409 323L327 323L327 263L245 263L245 287L164 287L164 269L82 269L82 329L0 329Z" fill="#2535c3"></path><path d="M0 601L82 601L82 601L164 601L164 601L245 601L245 601L327 601L327 601L409 601L409 601L491 601L491 601L573 601L573 601L655 601L655 601L736 601L736 601L818 601L818 601L900 601L900 601L900 467L900 449L818 449L818 473L736 473L736 353L655 353L655 431L573 431L573 329L491 329L491 431L409 431L409 473L327 473L327 365L245 365L245 515L164 515L164 425L82 425L82 425L0 425Z" fill="#140aad"></path></svg>